<svg id="et1OqA6b4Nk1" xmlns="http://www.w3.org/2000/svg" xmlns:xlink="http://www.w3.org/1999/xlink" viewBox="0 0 24 24"
  shape-rendering="geometricPrecision" text-rendering="geometricPrecision">
  <g transform="matrix(-1 0 0-1 24 24)">
    <path
      d="M7,3.33782C8.47087,2.48697,10.1786,2,12,2c5.5228,0,10,4.47715,10,10s-4.4772,10-10,10-10-4.4772-10-10c0-1.8214.48697-3.52913,1.33782-5"
      fill="none" stroke="#fff" stroke-width="1.8" stroke-linecap="round" />
  </g>
  <line x1="0" y1="3.506204" x2="0" y2="-3.506203" transform="translate(12 8.493797)" fill="none" stroke="#fff"
    stroke-width="1" />
  <line x1="1.172456" y1="-1.295285" x2="-1.172457" y2="1.295286" transform="translate(10.827544 13.295286)" fill="none"
    stroke="#fff" stroke-width="1" />
  <ellipse rx="0.7" ry="0.7" transform="matrix(1.701246 0 0 1.545647 12 12)" fill="#fff" />
  <line x1="-1.2" y1="0" x2="1.2" y2="0" transform="matrix(3.227128 0 0 1 18.689634 18.602055)" fill="none"
    stroke="#fff" stroke-width="1.8" />
  <line x1="0" y1="1.561856" x2="0" y2="-1.561856" transform="matrix(-1 0 0 2.568408 18.689634 18.602055)" fill="none"
    stroke="#fff" stroke-width="1.25" />
</svg>